<?xml version="1.0" encoding="UTF-8"?><svg id="Layer_2" xmlns="http://www.w3.org/2000/svg" viewBox="0 0 100 100"><defs><style>.cls-1{fill:#145a3c;}.cls-2{fill:#387f5f;}</style></defs><g id="Layer_1-2"><g><rect class="cls-1" x="0" y="0" width="100" height="100"/><g><path class="cls-2" d="M75,75c-7.72,0-17.37,8.67-19.09,25h11.78c1.4-2.6,4.15-4.37,7.31-4.37s5.91,1.77,7.31,4.37h11.78c-1.72-16.33-11.38-25-19.09-25Z"/><path class="cls-2" d="M25,75c-7.72,0-17.37,8.67-19.09,25h11.78c1.4-2.6,4.15-4.37,7.31-4.37s5.91,1.77,7.31,4.37h11.78c-1.72-16.33-11.38-25-19.09-25Z"/><path class="cls-2" d="M91.7,53.93c0-4.58,3.72-8.3,8.3-8.3V25c-8.5,0-19.36,10.53-19.36,30.22,0,12.76,8.67,19.78,19.36,19.78v-12.77c-4.58,0-8.3-3.72-8.3-8.3Z"/><path class="cls-2" d="M50,25c-8.5,0-19.36,10.53-19.36,30.22,0,12.76,8.67,19.78,19.36,19.78s19.36-7.01,19.36-19.78c0-19.7-10.86-30.22-19.36-30.22Zm0,37.23c-4.58,0-8.3-3.72-8.3-8.3s3.72-8.3,8.3-8.3,8.3,3.72,8.3,8.3-3.72,8.3-8.3,8.3Z"/><path class="cls-2" d="M19.36,55.22c0-19.7-10.86-30.22-19.36-30.22v20.63c4.58,0,8.3,3.72,8.3,8.3s-3.72,8.3-8.3,8.3v12.77c10.69,0,19.36-7.01,19.36-19.78Z"/><path class="cls-2" d="M75,25c10.69,0,19.36-7.01,19.36-19.78,0-1.82-.09-3.56-.27-5.22h-11.78c.63,1.17,.99,2.51,.99,3.93,0,4.58-3.72,8.3-8.3,8.3s-8.3-3.72-8.3-8.3c0-1.42,.36-2.76,.99-3.93h-11.78c-.18,1.66-.27,3.4-.27,5.22,0,12.76,8.67,19.78,19.36,19.78Z"/><path class="cls-2" d="M25,25c10.69,0,19.36-7.01,19.36-19.78,0-1.82-.09-3.56-.27-5.22h-11.78c.63,1.17,.99,2.51,.99,3.93,0,4.58-3.72,8.3-8.3,8.3s-8.3-3.72-8.3-8.3c0-1.42,.36-2.76,.99-3.93H5.91c-.18,1.66-.27,3.4-.27,5.22,0,12.76,8.67,19.78,19.36,19.78Z"/></g></g></g></svg>