<?xml version="1.0" encoding="UTF-8"?><svg id="Layer_2" xmlns="http://www.w3.org/2000/svg" viewBox="0 0 153.93 135.78"><defs><style>.cls-1{fill:#d7dbc4;}</style></defs><g id="Layer_1-2"><g><g id="ew1kHM"><g><g><path class="cls-1" d="M87.01,81.7c-7.11,1.88-14.18,3.9-21.34,5.55-2.22,.51-4.67,.05-7.02,.03,3.32-.95,6.64-1.9,9.96-2.85v.06c-3.47,.31-7.2-.28-9.89,2.8-1.73,.14-3.46,.27-5.19,.41-.1-.44-.2-.89-.3-1.33,3.74-1.16,7.48-2.32,10.97-3.4-3.81-2-7.74-4.06-11.68-6.13,.18-.48,.35-.97,.53-1.45,2.34,.5,4.7,.92,7.01,1.51,1.93,.5,3.92,.96,5.68,1.84,8.04,4.01,16.2,3.45,24.08,.09,3.83-1.63,7.04-4.71,10.53-7.13-.17-.36-.34-.71-.51-1.07-7.47,1.02-14.91,2.29-22.42,2.96-3.14,.28-6.39-.74-9.59-1.17,1.2-.22,2.41-.44,3.61-.66,4.89,1.44,9.47-.32,14.16-.88-.06-.47-.12-.94-.19-1.41-4.66,.74-9.32,1.48-13.97,2.22-1.37-.64-2.85-1.81-3.54,.75-2.99-.16-5.98-.32-8.97-.48-.01-.37-.02-.75-.03-1.12,4.98-2.95,10.39-3.65,16.14-2.66-.49,.49-.97,.97-1.46,1.46-.47,0-.94,0-1.42-.01v-.05c.47,0,.94,0,1.42,0,.46-.47,.93-.93,1.39-1.4,2.88-.13,5.79-.55,8.64-.31,3.27,.28,6.48,1.43,9.75,1.65,1.84,.12,3.76-.88,5.65-1.37l.31,.02s-.31,.07-.31,.07c-2.91-2.3-5.82-4.6-8.73-6.9,3.64-1.12,6.09,.23,8.39,2.24,4.59,4,5.32,3.98,10.22,.28,1.55-1.17,3.12-2.31,5.16-3.82-3.42-.25-6.17-.45-9.72-.71,2.86-2.84,5.72-3.36,8.79-3.54,12.59-.75,23.44-9.24,27.56-21.58-5.51,4.89-10.94,9.72-16.38,14.55l-1.19-1.37c1.84-1.26,3.77-2.42,5.51-3.81,1.81-1.44,3.6-2.98,5.13-4.71,1.63-1.85,2.95-3.97,4.4-5.97-.23-.28-.45-.56-.68-.83-3.46,2.71-7.1,5.22-10.36,8.16-8.26,7.44-17.79,12.58-28.43,16.68,2.19-3.66,5.02-6.14,11.08-9.77,3.7-2.22,7.44-4.36,11.17-6.54,.43-.11,.85-.22,1.28-.33-.07-.14-.13-.28-.2-.42-.36,.28-.71,.55-1.07,.83-2.92,.53-5.83,1.19-8.78,1.56-1.87,.24-3.8,.05-5.71,.06-.08-.4-.15-.81-.23-1.21,5.31-2.01,10.49-4.47,15.95-5.91,7.59-2,15.07-4.05,21.9-8.05,.75-.44,1.8-.37,2.71-.54-.19,1.02-.17,2.15-.62,3.03-3.76,7.38-8.11,14.51-11.24,22.15-1.63,3.96-1.22,8.78-1.61,13.22-.2,2.23,1.61,2.9,3.18,3.95,2.59,1.72,4.94,3.83,7.27,5.91,.45,.4,.38,1.4,.55,2.12-.75-.17-1.63-.13-2.23-.53-2.29-1.54-4.48-3.21-7.4-4.21,.37,1.54,.75,3.09,1.12,4.63-3.73-3.81-3.49-9.01-5.01-13.58,0-.47,0-.94,0-1.41,0,0,.05,0,.05,0l.02,1.41c-1.47,4.91-3.08,9.78-4.36,14.74-.99,3.82,.08,7.12,3.22,9.8,1.71,1.46,3.04,3.37,3.95,5.82-1.22-.71-2.43-1.41-3.83-2.22,.75,2.77,1.45,5.37,2.15,7.97l-1.1,.5c-1.46-2.22-2.92-4.44-4.37-6.65-.4,.03-.8,.05-1.19,.08,1.36,12.02,1.27,23.87-2.41,35.33l-1.13-.02c-.11-2.05-.17-4.1-.33-6.15-.76-10.02-.31-19.94,1.99-29.77,.4-1.72,.19-3.58,.26-5.38h.07c-5.63,10.17-7.26,21.31-8.02,32.67-.08,1.16-.07,2.33-.18,3.49-.03,.29-.32,.56-1.01,1.71-1.48-4.42,.43-8.18,.12-12.37l-3.65,3.65c2.73-7.39,5.34-14.44,8.31-22.46-7.21,2.93-5.46,10.91-11.11,14.45,.22-2.66,.41-4.85,.59-7.02q-16.52,16.94-24.69,19.49c3.53-7.06,10.91-9.54,15.02-15.66-5.71,2.89-10.61-.2-17.04-1.39,2.02-.99,2.92-1.75,3.89-1.86,5.45-.62,10.91-1.26,16.38-1.56,5.29-.29,9.08-2.59,11.47-7.28l-.03-.42c7.78-1.8,9.42-8.05,10.59-14.64l.03-.2,.05,.2c-2.82,2.33-5.28,5.32-10.05,4.54,3.24-2.74,7.14-5.01,9.52-8.36,2.37-3.34,3.2-7.78,4.71-11.73v-.22s.07,.22,.07,.22c-2.98,4.18-5.9,8.4-8.97,12.52-4.01,5.39-9.64,8.78-16.03,13.01,1.37-5.83,4.93-9.01,7.8-12.35,5.17-6.02,11.1-11.4,16.48-17.25,2.2-2.39,3.81-5.31,5.15-8.54-5.03,3.27-10.81,5.39-14.26,10.57-5,7.51-10.54,14.54-17.34,20.51-.96,.84-1.94,1.67-3.77,3.23,.79-4.24,3.65-5.56,5.44-7.61,1.85-2.13,4.12-3.9,5.96-6.04,1.89-2.19,3.48-4.64,5.2-6.98-.23-.23-.46-.47-.69-.7-1.04,.64-2.15,1.19-3.1,1.94-4.03,3.21-8.08,6.39-11.97,9.76-3.8,3.29-7.03,6.9-8.09,12.22-.44,2.23-2.52,4.17-3.97,6.15-.29,.39-1.13,.38-1.72,.55-.11-.6-.5-1.34-.28-1.77,.97-1.9,2.13-3.7,3.19-5.56,.38-.67,.66-1.39,1.4-2.97-5.93,3.48-8.36,8.61-11.4,13.21h.08c-3.28,.9-4.49,3.68-5.66,6.39-2.07,4.82-3.71,9.84-6.06,14.51-1.82,3.62-4.46,6.82-6.74,10.21h.09c1.9-3.75,3.83-7.49,5.67-11.29,.77-1.6,1.33-3.3,1.99-4.96,.05-.31,.1-.61,.15-.92-.02,.31-.05,.62-.07,.93-5.02,4.09-10.01,8.21-15.09,12.22-.65,.51-1.77,.42-2.67,.61,.21-.92,.16-2.03,.67-2.74,1.34-1.89,2.83-3.7,4.42-5.38,6.13-6.5,12.3-12.96,18.49-19.41,1.93-2.01,3.94-3.95,5.47-6.73-.96,.31-1.96,.53-2.87,.94-2.72,1.25-5.31,2.82-8.11,3.82-7.29,2.62-12.83,7.53-18.08,12.96-2.22,2.3-3.38,4.7-3.25,7.98,.09,2.26-.59,4.57-1.07,6.83-.1,.49-.8,.85-1.23,1.27-.37-.49-1.01-.95-1.06-1.47-.22-2.26-.26-4.54-.37-6.82-1.25,.88-2.51,1.78-3.76,2.67l-.78-.81,13.48-13.48c-.19-.26-.39-.52-.58-.79-1.62,.39-3.23,.78-4.85,1.16l.02,.07c1.08-.96,2.03-2.19,3.28-2.83,4.5-2.31,9.11-4.42,14.61-7.05-4.02-.22-7.07-.4-10.12-.57,0,0,0-.29,0-.29,3.41-.23,6.82-.35,10.22-.72,2.39-.26,5.05-.29,7.06-1.39,5.46-2.99,10.65-6.49,15.94-9.78,.25-.12,.49-.23,.74-.35-.24,.14-.49,.29-.73,.43Zm36.1,30.33s-.06,0-.06,0c0-.47,0-.94,0-1.41,0-.47,0-.94,0-1.42,0-.47,0-.94,0-1.41,0,0,.06,0,.06,0,0,.47,0,.94,0,1.41,0,.47,0,.94,0,1.42,0,.47,0,.94,0,1.42Zm-9.23-54.41c-.47,0-.95,0-1.42,.01-.32-.02-.65-.11-.96-.05-.4,.08-.78,.27-1.18,.42,.43,0,.86,.07,1.28,0,.3-.05,.57-.28,.86-.43,.47,0,.95,.01,1.42,.02h.17s-.17,.03-.17,.03Zm10.65,47.34s-.06,0-.06,0c0-.47,0-.94,0-1.41,0,0,.07,0,.07,0,0,.47,0,.94,0,1.41Zm-7.81-65.8c.71-.23,1.41-.46,2.12-.69,.71-.24,1.41-.47,2.12-.71,.71-.24,1.42-.48,2.12-.72,.71-.24,1.42-.47,2.13-.71,.24-.1,.48-.21,.72-.31-.24,.13-.47,.26-.71,.38-.71,.24-1.42,.48-2.12,.72-.71,.24-1.42,.47-2.12,.71-.71,.24-1.41,.47-2.12,.71-.71,.23-1.41,.46-2.12,.69-.25,.13-.5,.25-.75,.38,.25-.15,.5-.3,.75-.45Zm-50.23,41.82c-.7-.24-1.41-.48-2.11-.72-1.39-.62-2.78-1.24-4.16-1.86-.11,.4-.23,.79-.34,1.19,1.5,.2,3.01,.4,4.52,.59,.7,.25,1.4,.49,2.11,.74v.06Zm44.57-31.92c3.14-1.64,6.29-3.28,9.43-4.92-.24-.39-.48-.78-.72-1.17-2.9,2.06-5.8,4.12-8.7,6.18-.55,.18-1.09,.36-1.64,.54,.05,.13,.09,.26,.14,.4l1.49-1.02Zm-21.91,54.47c4.54,2.72,8.46-.33,12.7-.42-.07-.53-.13-1.05-.2-1.58-4.17,.69-8.33,1.38-12.5,2.07v-.07Zm-18.76-2.16c-3.83,4.92-7.65,9.84-12.01,15.44,5.61-4.6,9.84-9.2,12.01-15.44Zm30.95,5.39c-.16-.1-.31-.21-.47-.31l-7.44,7.44c.14,.12,.27,.25,.41,.37,2.5-2.5,5-5,7.5-7.5Zm18.72-34.43c-.03-.14-.06-.28-.09-.43l-5.78,5.78c.09,.08,.19,.16,.28,.24l5.59-5.59Zm-4.77,1.12c.12,.12,.24,.25,.35,.37l3.28-3.28c-.13-.12-.25-.23-.38-.35l-3.26,3.26ZM44.01,119.29c.22-.12,.46-.19,.62-.34,.08-.07,.06-.4,0-.43-.2-.1-.44-.12-.66-.17,.01,.3,.02,.59,.04,.94Zm67.13-38.69c-.11,.1-.23,.19-.31,.3-.02,.02,.12,.15,.18,.23,.11-.1,.23-.19,.31-.3,.02-.02-.11-.15-.18-.23Zm-23.56,7.9c-.05,.12-.1,.25-.15,.37,.2-.03,.41-.05,.61-.08-.02-.13-.04-.25-.06-.38-.13,.03-.27,.05-.4,.08Zm-26.84,22.72c-.04,.13-.08,.26-.11,.39,.13-.03,.3-.03,.38-.11,.08-.08,.08-.25,.12-.38-.13,.04-.26,.07-.39,.11Z"/><path class="cls-1" d="M46,104.18c-1.7,1.52-3.34,3.11-5.1,4.55-3.59,2.94-7.66,5.4-10.78,8.76-6.94,7.49-15.43,12.54-24.46,16.88-.91,.44-2.11,.25-3.18,.35,.57-1.05,.89-2.43,1.75-3.09,7.61-5.81,15.32-11.48,22.79-17.05-.87,.05-2.35,.13-3.82,.21-.18-.31-.36-.62-.54-.93,1.23-.7,2.42-1.9,3.7-2,6.35-.51,11.87-2.85,16.85-6.73,.72-.56,1.85-.6,2.8-.88l-.02-.07Zm-21.91,16.41c-2.35,1.87-4.7,3.74-7.05,5.61-.75,.34-1.51,.67-2.26,1.01,.11,.18,.22,.36,.32,.54,.64-.54,1.29-1.09,1.93-1.63,2.35-1.87,4.7-3.74,7.06-5.61,.31-.06,.67-.05,.94-.2,.41-.23,.75-.57,1.12-.86-.45,.16-.91,.29-1.33,.51-.28,.14-.48,.42-.72,.64Zm-9.81,5.13c-.08-.08-.16-.16-.25-.24l-1.95,1.95c.08,.08,.17,.16,.25,.24l1.94-1.94Zm3.57-2.9c-.05,.23-.11,.47-.16,.7,.25-.14,.52-.26,.74-.44,.1-.08,.11-.27,.16-.41-.24,.05-.49,.1-.73,.15Z"/><path class="cls-1" d="M77.09,98.61c-.61,3.59-.03,6.82,2.22,9.86,1.09,1.46,1.45,3.46,1.35,5.77-1.14-.76-2.29-1.51-3.63-2.4,.27,3.49,.53,6.83,.79,10.16-.96-2.37-1.91-4.74-2.87-7.11,0-.48,0-.96,0-1.45,0,0,.07,0,.07,0,0,.48,0,.96,0,1.45,.22,2.06,.33,4.14,.76,6.16,.09,.42,1.33,.59,2.04,.88-.01,2.66-.03,5.32-.04,7.98-.41,.06-.82,.13-1.23,.19-1.01-2.71-2.01-5.42-3.02-8.14l.06-.28,.02,.28-7.18,13.82c-.35-.14-.71-.29-1.06-.43-.3-3.67,.96-6.91,3.27-9.87h-.03c.26,.23,.51,.47,.77,.71-.04,.26-.09,.53-.13,.79,.02-.26,.03-.53,.05-.79l.76-2.17-.02,.09c1.99-2.26,3.06-4.77,2.07-7.82,.25-.7,.49-1.41,.74-2.11v-.21s.07,.21,.07,.21c-.24,.71-.48,1.41-.72,2.12-.96,1.88-1.93,3.76-2.89,5.64h.09c-.11-.81-.53-1.73-.27-2.41,2.61-7,5.33-13.95,8.02-20.92h-.05Z"/><path class="cls-1" d="M53.79,93.8c-5.08,2.57-10.16,5.13-15.24,7.7-.27-.29-.54-.59-.81-.88,1.4-1.56,2.79-3.11,3.74-4.17-6.15-1.61-12.66-3.3-19.92-5.2,3.82-1.94,7.78-1.95,12.44-.5,0,0-.02,.14-.02,.14-1.64,.22-3.28,.44-4.92,.67,0,0,0-.05,0-.05,4,.7,7.99,1.41,11.99,2.11,.48,0,.96,0,1.45,0v.07c-.48,0-.96,0-1.45,0-.46-.49-.93-.99-1.39-1.48v.06c.05-.61,.39-1.48,.12-1.78-2.34-2.49-4.8-4.88-7.76-7.85,3.13-.99,4.5-.07,5.51,1.8,1.19,1.75,2.39,3.5,3.58,5.24l.87-.72-4.52-4.52c1.14,.58,2.6,.88,3.37,1.78,3.47,4.03,7.64,6.63,12.97,7.27,0,0,0,.29,0,.29Z"/><path class="cls-1" d="M100.46,93.69c-2.65,.43-5.29,.86-8.98,1.46,3.43-2.8,4.49-2.9,8.98-1.53,0,0,0,.07,0,.07Z"/><path class="cls-1" d="M59.42,127.59c-.2,2.45-.67,4.76-3.26,6.84-.16-3.43,1.82-5.02,3.35-6.83h-.09Z"/><path class="cls-1" d="M34,90.75l5.65,1.52s0-.06,0-.06l-5.67-1.32s.02-.14,.02-.14Z"/><path class="cls-1" d="M104.69,93.42c1.89,0,3.78,.01,5.66,.02,0,0,.03,.43,.03,.43-1.9,.01-3.79,.02-5.69,.03v-.48Z"/><path class="cls-1" d="M68.65,125.48c.25-1.18,.5-2.36,.75-3.54h-.09c.25,.72,.49,1.45,.74,2.17l.02-.09c-.48,.49-.97,.97-1.45,1.46h.03Z"/><path class="cls-1" d="M77.14,98.61c.24-.71,.49-1.42,.73-2.13h-.08c-.24,.7-.47,1.41-.71,2.12h.05Z"/><path class="cls-1" d="M103.28,93.55c.47-.04,.94-.09,1.41-.13,0,0,0,.48,0,.48-.47-.05-.94-.09-1.41-.14,0,0,0-.2,0-.2Z"/><path class="cls-1" d="M103.28,93.75c-.47,0-.94-.02-1.41-.03v-.14c.47,0,.94-.02,1.41-.03,0,0,0,.2,0,.2Z"/><path class="cls-1" d="M101.86,93.73c-.47-.01-.94-.03-1.41-.04,0,0,0-.06,0-.06,.47-.01,.94-.03,1.4-.04,0,0,0,.14,0,.14Z"/></g><g><path class="cls-1" d="M54.27,26.63c7.09,.36,13.64-1.39,19.28-5.69,1.37-1.04,1.82-3.33,2.6-5.1,.85-1.93,1.36-4.05,2.45-5.83,.65-1.07,2.12-1.65,3.22-2.44v4.11c1.59-1.13,2.98-2.12,4.37-3.11h0c-1.32,2.01-2.65,4.01-3.97,6.01l-.05-.04c3.41-1.24,5.86-3.45,7.02-6.96,.32-.34,.64-.68,.96-1.03,0,0,.23-.13,.23-.13l-.17,.19c-.34,.32-.68,.64-1.02,.96-.66,0-1.32,.02-1.98,.03l-.03-.04c2.25-1.91,4.51-3.83,6.76-5.74l1.02,.99c-2.48,4.81-6.39,8.6-9.73,12.79-.25,.18-.5,.36-.75,.53,.24-.19,.47-.39,.71-.58,2.6-1.02,5.33-1.79,7.76-3.11,8.04-4.36,16.34-3.55,24.73-1.57,.59,.14,1.01,.98,1.52,1.49-.71,.34-1.41,.98-2.12,.99-5.65,.08-11.31,.05-17.92,.05,2.74,2.12,4.73,3.56,6.58,5.16,.62,.53,.9,1.47,1.33,2.22-.93-.06-1.95,.1-2.78-.22-2.31-.92-4.67-1.84-6.78-3.12-3.46-2.1-6.69-2.2-10.37-.41-5.16,2.5-10.53,4.57-15.81,6.82,.13,.42,.27,.83,.4,1.25,3.11-.53,6.34-.67,9.29-1.65,9.33-3.09,18.28-2.99,26.96,2.02,1.4,.81,2.97,1.32,4.48,3.01-2.13,.13-4.27,.43-6.39,.35-9.47-.37-18.93-.86-28.4-1.26-2.16-.09-4.32,.04-6.49,.06l-.11-.18,.16,.14c6.7,3.93,13.41,7.83,20.07,11.82,.53,.32,.75,1.16,1.12,1.76-.73-.11-1.6,0-2.17-.36-5.03-3.19-9.99-6.51-15.02-9.69-1.06-.67-2.38-.94-4.06-1.58,.44,2.64,.8,4.76,1.15,6.88-.4,.16-.8,.32-1.2,.49-1.27-2.02-2.76-3.94-3.74-6.1-1.26-2.76-3.22-3.7-5.99-3.02-3.7,.91-7.36,1.99-11.03,3-.12-.13-.24-.26-.36-.39,1.38-1.29,2.76-2.57,4.14-3.86,0,0,.13,.12,.13,.12Zm47.94-9.1l-.05,.05c-.67-.32-1.34-.65-2.01-.97-.28-.1-.56-.19-.83-.29,.29,.08,.59,.16,.88,.24,.67,.33,1.34,.65,2.02,.98Zm-23.05-5.01c.1-.25,.2-.49,.29-.74-.08,.26-.16,.53-.24,.79-.1,.28-.2,.55-.29,.83,.08-.29,.16-.58,.24-.88Zm24.03-.98h5.23l-.16-1.11c-1.67,.39-3.34,.79-5.01,1.18-1.15,.07-2.3,.14-3.45,.2,.06,.26,.12,.52,.18,.79,1.07-.35,2.14-.7,3.22-1.06Zm-14.04,14.22c-.06,.15-.12,.31-.18,.46h9.45v-.46h-9.26Zm6.24-2.22c.04-.15,.08-.31,.11-.46h-4.54c.02,.15,.04,.31,.06,.46h4.37Zm-9.69,.87c.12-.08,.24-.15,.37-.23-.1-.1-.25-.3-.29-.28-.18,.1-.33,.26-.49,.39,.14,.04,.27,.08,.41,.12Z"/><path class="cls-1" d="M6.18,68.54c2.7-1.61,5.48-3.09,8.08-4.85,5.21-3.53,10.98-5.5,17.15-6.37,.73-.1,1.49,.07,2.41,.61-3.56,2.86-6.45,6.69-11.63,6.63l.05,.05c-.7,0-1.41,0-2.11,0l.09-.07c-.27,.11-.54,.23-.81,.34,.27,.25,.54,.49,.8,.74l-.06-.07c-1.6,.79-3.17,1.67-4.81,2.36-3.8,1.59-7.64,3.1-11.48,4.59-.7,.27-1.5,.27-2.26,.4-.02-.76-.23-1.58-.04-2.29,1.69-6.41,3.49-12.79,5.16-19.2,1.34-5.14,.82-10.19-.76-15.24-2.9-9.32-2.32-18.56,.51-27.7,.47-.02,.95-.04,1.42-.06,.24,9.08,.47,18.16,.71,27.23,.44,.06,.88,.12,1.33,.18,.02-9.95,2.86-19.07,8.28-27.45-.78,2.27-1.51,4.56-2.34,6.81-.98,2.64-2.31,5.19-3,7.9-.64,2.52-.63,5.2-.29,7.97,2.19-3.96,4.37-7.93,6.56-11.89,.35,.1,.69,.19,1.04,.29,0,.99,.17,2.02-.03,2.97-1.43,6.89-3.95,13.3-7.47,19.46-1.83,3.2-2.4,7.12-3.55,10.72l.05-.07c0,.69,0,1.38,0,2.07l-.03-.04c-1.31,4.01-2.63,8.02-3.94,12.03l-.29,.22,.23-.28c2.01-1.31,4.02-2.63,6.04-3.94l-.03-.03c-1.65,2.01-3.3,4.01-4.95,6.02-.34,.34-.68,.68-1.02,1.03,0,0-.05-.05-.05-.05,.34-.34,.68-.68,1.02-1.02Zm16.02-6.98c.16-.04,.33-.06,.48-.13,.11-.05,.19-.17,.28-.25-.24,.15-.47,.29-.71,.44-.26,.16-.52,.31-.78,.47,.24-.17,.49-.34,.73-.52ZM6.84,28.82c-.22,.43-.48,.7-.48,.97,0,.47,.18,.93,.28,1.4,.15-.27,.41-.54,.42-.82,.02-.47-.13-.94-.23-1.55Z"/><path class="cls-1" d="M51.2,48.56c10.01-.16,12.09,.16,17.65,2.96-6.5-.31-12.12-3.16-18.64-.12,3.68,.17,6.6,.31,9.51,.45-7.96,2.77-15.84-1.61-23.78,.18,4.43,1.27,8.85,2.54,13.27,3.8,.02,.22,.04,.45,.06,.67-.78,.18-1.61,.62-2.32,.48-1.95-.39-3.91-.88-5.76-1.61-8.65-3.4-16.59-2.01-24.07,3.26-1.18,.83-2.63,1.27-3.95,1.9l.06,.06c3.42-3.91,6.84-7.81,10.27-11.73,.46,.67,.27,3.64,2.81,1.1,4.54-4.55,9.18-8.99,13.78-13.47,0,0,.24,.16,.24,.16,.31-.04,.62-.07,.93-.11l-.1,.08,1.08-1.08-.06,.06c2.61-1.74,5.22-3.49,7.83-5.23,.12,.13,.24,.26,.36,.39-2.51,2.83-5.02,5.66-7.21,8.14,1.87-.27,4.55-.66,8.34-1.2-2.37,3.17-4.78,4.45-7.3,4.47-5.44,.03-9.46,2.59-13.17,6.11-1.18,1.12-2.5,2.1-4.11,3.44,4.64-.49,8.88-.62,12.97-1.5,2.67-.58,5.17-2.13,7.62-3.46,2.31-1.25,4.46-2.78,6.68-4.19l.02,.03c-.69,1.01-1.38,2.01-2.06,3.02l.08-.09c0,.36-.01,.72-.02,1.08,0,0-.03-.04-.03-.04-.31,.69-.62,1.37-.94,2.06-.46,.03-.93,.07-1.39,.1,.05,.16,.09,.32,.14,.48,.4-.21,.81-.42,1.21-.63Z"/><path class="cls-1" d="M40.09,36.49c3.98-12.44,6.06-25.63,14.02-36.49,.39,.07,.77,.14,1.16,.2-.16,2.01-.02,4.1-.53,6.01-2.28,8.65-4.09,17.5-10.45,24.47-1.14,1.24-1.43,3.26-2.12,4.92l.06-.06-1.08,1.08,.1-.08c-.3,.09-.61,.13-.93,.11l-.24-.16Zm9.07-17.96c.34-.98,.68-1.96,1.03-2.94,.13-.25,.25-.49,.38-.74-.11,.26-.22,.52-.33,.78-.34,.98-.67,1.97-1.01,2.95-.2,.19-.4,.38-.6,.57,.13,.07,.27,.14,.4,.21,.04-.28,.09-.55,.13-.83Z"/><path class="cls-1" d="M55.18,41.56c2.35-3.39,5.84-4.86,10.37-6.24-1.48,3.48-4.16,4.61-6.36,6.22l.05,.05c-1.34-2.59-2.68,.6-4.02,0l-.03-.04Z"/><path class="cls-1" d="M11.13,51.53c2.32-3.02,4.64-6.03,6.96-9.05l.21,.18c-2.35,2.99-4.7,5.98-7.04,8.98,0,0-.12-.11-.12-.11Z"/><path class="cls-1" d="M18.09,42.48c.51-1.49,1.02-2.97,1.53-4.46l1.15,.45c.3,1.86-.94,3.08-2.47,4.19,0,0-.21-.18-.21-.18Z"/><path class="cls-1" d="M11.26,51.64l-2.08,2.93,.03,.04c0-.69,0-1.38,0-2.07l-.05,.07c.66-.36,1.31-.72,1.97-1.08l.12,.11Z"/><path class="cls-1" d="M57.17,43.56c-.99,.67-1.98,1.34-2.98,2.02h0c1.01-.66,2.01-1.32,3.02-1.98l-.04-.04Z"/><path class="cls-1" d="M56.18,24.56c.29-.47,.59-.94,.88-1.41,.11,.09,.23,.18,.34,.26-.4,.39-.79,.78-1.19,1.17,0,0-.03-.02-.03-.02Z"/><path class="cls-1" d="M54.19,45.57c-.67,.33-1.34,.66-2.02,.98,0,0,.03,.04,.03,.04,0-.36,.01-.72,.02-1.08l-.08,.09c.68-.01,1.37-.02,2.05-.04,0,0,0,0,0,0Z"/><path class="cls-1" d="M54.18,42.56c.33-.33,.66-.67,.99-1,0,0,.03,.04,.03,.04-.34,.33-.67,.66-1.01,.99l-.02-.03Z"/><path class="cls-1" d="M59.19,41.54c-.34,.33-.68,.66-1.02,.99l.04,.06c.34-.33,.68-.67,1.03-1,0,0-.05-.05-.05-.05Z"/><path class="cls-1" d="M56.2,24.59c-.33,.34-.65,.68-.98,1.02,0,0-.07-.07-.07-.07,.34-.33,.68-.65,1.02-.98,0,0,.02,.02,.02,.02Z"/><path class="cls-1" d="M86.19,8.57c.33-.34,.66-.67,.99-1.01,0,0,.03,.04,.03,.04-.34,.33-.68,.65-1.01,.98,0,0,0,0,0,0Z"/><path class="cls-1" d="M54.14,26.51c.34-.32,.68-.64,1.02-.97,0,0,.07,.07,.07,.07-.32,.34-.64,.68-.96,1.02,0,0-.12-.12-.12-.12Z"/><path class="cls-1" d="M11.21,62.59c.34-.33,.67-.65,1.01-.98l-.06-.06c-.33,.34-.65,.67-.98,1.01l.03,.03Z"/><path class="cls-1" d="M12.21,61.61c.34-.34,.68-.68,1.02-1.02l-.06-.06c-.34,.34-.68,.68-1.02,1.02l.06,.06Z"/><path class="cls-1" d="M58.17,42.53l-1,1.03s.04,.04,.04,.04c.33-.34,.66-.67,1-1.01,0,0-.04-.06-.04-.06Z"/></g></g></g><g><g><path d="M49.92,71.77l-1.36,4.23h-5.43c-3.51,13.58-13.26,27.47-25.96,27.47-11.58,0-17.17-8.31-17.17-20.92,0-20.52,13.66-42.97,30.67-42.97,10.38,0,17.25,9.82,14.06,20.92h-4.87c2.64-9.1-2.16-16.45-9.5-16.45-14.06,0-25.64,19.97-25.64,38.57,0,9.82,3.91,16.45,12.7,16.45s17.81-11.26,21.08-23.08h-11.82l1.36-4.23h21.88Z"/><path d="M90,77.68v4.79c-3.11,6.79-9.18,13.82-14.85,13.82-4.47,0-6.79-3.67-5.51-8.87-2.4,5.35-6.87,8.87-10.78,8.87-9.74,0-10.22-10.78-.88-31.47h4.63c-7.51,16.69-9.1,27.15-3.04,27.15,5.75,0,9.66-8.39,16.13-27.15h4.95c-8.15,20.61-9.58,27.31-5.11,27.31,3.83,0,9.74-6.31,14.46-14.46Z"/><path d="M107.41,77.68v4.79c-3.12,6.79-9.18,13.82-14.86,13.82-7.51,0-7.99-5.83-4.39-17.33,2.72-8.54,7.03-20.76,11.42-32.98h4.63c-5.27,14.22-9.42,26.12-11.74,33.46-3.04,9.5-3.12,12.7,.48,12.7,3.83,0,9.74-6.31,14.46-14.46Z"/><path d="M141.11,85.75c-2.56,4.15-7.35,10.46-13.42,10.54h-.08c-4.47-.08-5.27-3.43-5.43-5.27-1.28,1.84-3.67,5.27-9.26,5.27s-9.34-5.59-9.34-11.74c0-10.86,6.71-20.53,16.21-20.53,3.59,0,6.95,2.4,7.99,4.63l1.36-3.83h4.31c-7.91,22.28-9.02,27.31-5.35,27.31,3.03,0,7.67-4.63,10.14-8.94l2.88,2.56Zm-14.93-12.86c-.56-2.56-3.35-4.71-6.47-4.71-7.19,0-11.74,7.91-11.74,16.37,0,3.51,1.92,7.43,5.83,7.43,5.51,0,9.02-6.95,12.38-19.09Z"/></g><path d="M141.11,85.75l-2.88-2.56c13.51-22.45,14.15-41.36,7.13-53.77-5.49-9.71-17.33-15.05-33.34-15.05s-31.16,5.94-45.77,16.31c-13.33,9.46-18.7,19.71-21.61,29.83h-4.8c2.91-11.74,9.72-22.9,24.09-33.09,15.27-10.83,31.08-17.04,48.09-17.04s30.6,6.07,36.83,17.08c5.49,9.7,10.57,27.87-7.74,58.29Z"/><g><path d="M13.8,24.17c-1.47,1.45-3.49,2.36-5.71,2.36C3.63,26.53,0,22.92,0,18.46S3.63,10.37,8.09,10.37c2.22,0,4.24,.91,5.71,2.36l-2.18,2.18c-.91-.91-2.15-1.47-3.53-1.47-2.79,0-5.03,2.24-5.03,5.03s2.24,5.01,5.03,5.01c1.38,0,2.63-.57,3.53-1.47l2.18,2.18Z"/><path d="M22.52,26.21v-6.28h-3.6v6.28h-3.08V10.69h3.08v6.19h3.6v-6.19h3.06v15.52h-3.06Z"/><path d="M29.21,26.21V10.69h8.27v3.08h-5.19v3.1h5.19v3.06h-5.19v3.19h5.19v3.08h-8.27Z"/><path d="M39.06,26.21l5.94-12.44h-5.46v-3.08h10.38l-5.98,12.44h5.73v3.08h-10.6Z"/></g></g></g></g></svg>