<?xml version="1.0" encoding="UTF-8"?><svg id="Layer_2" xmlns="http://www.w3.org/2000/svg" viewBox="0 0 274.28 274.28"><defs><style>.cls-1{fill:#fff;}.cls-2{fill:#96d9f7;}</style></defs><g id="Layer_1-2"><g><rect class="cls-2" width="274.28" height="274.28"/><g><path class="cls-1" d="M209.37,30.46l-46.77,44.74c-6.2,5.93-9.36,14.36-8.58,22.91h0c.83,9.08-2.8,18.01-9.72,23.94L35.51,215.27c-7.37,6.32-7.81,17.58-.94,24.44h0c6.87,6.87,18.12,6.43,24.44-.94l93.22-108.78c5.94-6.93,14.86-10.55,23.94-9.72h0c8.54,.78,16.98-2.38,22.91-8.58l44.74-46.77c1.04-1.09,1.02-2.81-.04-3.88h0c-1.06-1.06-2.77-1.09-3.86-.06l-35.53,33.24c-1.09,1.02-2.8,.99-3.86-.06l-.02-.02c-1.06-1.06-1.09-2.77-.06-3.86l33.24-35.53c1.02-1.09,.99-2.8-.06-3.86l-.02-.02c-1.06-1.06-2.77-1.09-3.86-.06l-35.53,33.24c-1.09,1.02-2.8,.99-3.86-.06l-.02-.02c-1.06-1.06-1.09-2.77-.06-3.86l33.24-35.53c1.02-1.09,.99-2.8-.06-3.86l-.02-.02c-1.06-1.06-2.77-1.09-3.86-.06l-35.53,33.24c-1.09,1.02-2.8,.99-3.86-.06l-.02-.02c-1.06-1.06-1.09-2.77-.06-3.86l33.24-35.53c1.02-1.09,.99-2.8-.06-3.86h0c-1.07-1.07-2.79-1.09-3.88-.04Z"/><path class="cls-1" d="M90.81,50.99l-11.84-8.38c-11.46-8.11-27.1-6.78-37.02,3.15h0c-9.93,9.93-11.26,25.56-3.15,37.02l8.38,11.84c9.19,12.99,23.67,21.25,39.53,22.53h0c14.13,1.15,27.24,7.83,36.46,18.6l88.28,103.02c6.32,7.37,17.58,7.81,24.44,.94h0c6.87-6.87,6.43-18.12-.94-24.44l-103.02-88.28c-10.77-9.23-17.45-22.33-18.6-36.47h0c-1.29-15.86-9.54-30.34-22.53-39.53Z"/></g></g></g></svg>